<svg width="169" height="49" viewBox="0 0 169 49" fill="none" xmlns="http://www.w3.org/2000/svg">
<rect width="169" height="49" rx="5" fill="black"/>
<path d="M38.0861 25.7638C38.0732 23.5659 39.069 21.9095 41.08 20.6881C39.9553 19.0768 38.2537 18.1905 36.0107 18.0197C33.887 17.8521 31.5635 19.2572 30.7127 19.2572C29.8136 19.2572 27.7575 18.0777 26.1397 18.0777C22.8011 18.1293 19.2529 20.7396 19.2529 26.0506C19.2529 27.62 19.5397 29.241 20.1134 30.9104C20.8804 33.1082 23.6454 38.4933 26.5297 38.4062C28.0379 38.3708 29.1046 37.3363 31.0672 37.3363C32.9718 37.3363 33.9579 38.4062 35.6401 38.4062C38.5502 38.3644 41.051 33.4691 41.7793 31.2648C37.8767 29.4247 38.0861 25.8766 38.0861 25.7638ZM34.6991 15.9347C36.333 13.9946 36.1848 12.2286 36.1364 11.5938C34.6927 11.6775 33.0233 12.5767 32.0727 13.682C31.0253 14.868 30.4098 16.3343 30.5419 17.9875C32.1017 18.1067 33.5261 17.3043 34.6991 15.9347Z" fill="white"/>
<path d="M55.924 17V8.168H59.416C59.952 8.168 60.404 8.268 60.772 8.468C61.14 8.66 61.436 8.944 61.66 9.32C61.892 9.696 62.06 10.16 62.164 10.712C62.268 11.256 62.32 11.88 62.32 12.584C62.32 13.512 62.212 14.304 61.996 14.96C61.78 15.616 61.456 16.12 61.024 16.472C60.592 16.824 60.056 17 59.416 17H55.924ZM56.884 16.148H59.344C59.816 16.148 60.2 16.004 60.496 15.716C60.792 15.42 61.012 15.008 61.156 14.48C61.3 13.944 61.372 13.312 61.372 12.584C61.372 11.928 61.332 11.376 61.252 10.928C61.172 10.472 61.048 10.104 60.88 9.824C60.72 9.544 60.512 9.344 60.256 9.224C60 9.096 59.696 9.032 59.344 9.032H56.884V16.148ZM66.3662 17.072C65.9022 17.072 65.4942 17.024 65.1422 16.928C64.7982 16.832 64.5102 16.664 64.2782 16.424C64.0462 16.184 63.8742 15.852 63.7622 15.428C63.6502 14.996 63.5942 14.448 63.5942 13.784C63.5942 13.112 63.6502 12.564 63.7622 12.14C63.8742 11.708 64.0462 11.376 64.2782 11.144C64.5102 10.904 64.7982 10.74 65.1422 10.652C65.4942 10.556 65.9022 10.508 66.3662 10.508C66.8302 10.508 67.2342 10.556 67.5782 10.652C67.9302 10.748 68.2222 10.916 68.4542 11.156C68.6862 11.388 68.8582 11.72 68.9702 12.152C69.0902 12.576 69.1502 13.12 69.1502 13.784C69.1502 14.456 69.0902 15.008 68.9702 15.44C68.8582 15.864 68.6862 16.196 68.4542 16.436C68.2302 16.668 67.9422 16.832 67.5902 16.928C67.2382 17.024 66.8302 17.072 66.3662 17.072ZM66.3662 16.292C66.6622 16.292 66.9222 16.264 67.1462 16.208C67.3782 16.152 67.5702 16.04 67.7222 15.872C67.8742 15.704 67.9902 15.452 68.0702 15.116C68.1502 14.78 68.1902 14.336 68.1902 13.784C68.1902 13.224 68.1502 12.78 68.0702 12.452C67.9902 12.124 67.8742 11.876 67.7222 11.708C67.5702 11.54 67.3782 11.428 67.1462 11.372C66.9222 11.316 66.6622 11.288 66.3662 11.288C66.0622 11.288 65.7982 11.316 65.5742 11.372C65.3502 11.428 65.1622 11.54 65.0102 11.708C64.8582 11.876 64.7422 12.124 64.6622 12.452C64.5822 12.78 64.5422 13.224 64.5422 13.784C64.5422 14.336 64.5822 14.78 64.6622 15.116C64.7422 15.452 64.8582 15.704 65.0102 15.872C65.1622 16.04 65.3502 16.152 65.5742 16.208C65.7982 16.264 66.0622 16.292 66.3662 16.292ZM71.7736 17L69.8296 10.592H70.8016L72.3736 16.112L73.9936 10.592H74.8216L76.4416 16.112L77.9656 10.592H78.9376L77.0056 17H75.9616L74.3896 11.864L72.8056 17H71.7736ZM80.0761 17V10.592H80.8201L81.0241 11.3C81.3281 11.084 81.6841 10.896 82.0921 10.736C82.5001 10.568 82.9241 10.484 83.3641 10.484C83.8361 10.484 84.2161 10.584 84.5041 10.784C84.7921 10.984 85.0041 11.248 85.1401 11.576C85.2761 11.904 85.3441 12.26 85.3441 12.644V17H84.3961V12.752C84.3961 12.48 84.3401 12.24 84.2281 12.032C84.1241 11.816 83.9721 11.648 83.7721 11.528C83.5801 11.408 83.3401 11.348 83.0521 11.348C82.7881 11.348 82.5401 11.376 82.3081 11.432C82.0841 11.48 81.8681 11.552 81.6601 11.648C81.4601 11.736 81.2481 11.844 81.0241 11.972V17H80.0761ZM88.8108 17.012C88.4428 17.012 88.1348 16.948 87.8868 16.82C87.6388 16.684 87.4508 16.468 87.3228 16.172C87.1948 15.868 87.1308 15.46 87.1308 14.948V7.844H88.0788V14.828C88.0788 15.212 88.1148 15.504 88.1868 15.704C88.2588 15.896 88.3628 16.032 88.4988 16.112C88.6348 16.184 88.7948 16.232 88.9788 16.256L89.6268 16.328V17.012H88.8108ZM91.9061 17.072C91.4341 17.072 91.0461 16.932 90.7421 16.652C90.4381 16.372 90.2861 15.976 90.2861 15.464V15.008C90.2861 14.504 90.4501 14.096 90.7781 13.784C91.1141 13.472 91.6181 13.316 92.2901 13.316H94.4621V12.524C94.4621 12.26 94.4141 12.036 94.3181 11.852C94.2301 11.66 94.0661 11.512 93.8261 11.408C93.5941 11.304 93.2541 11.252 92.8061 11.252H90.8141V10.688C91.0941 10.64 91.4181 10.596 91.7861 10.556C92.1621 10.516 92.6021 10.496 93.1061 10.496C93.6261 10.488 94.0581 10.552 94.4021 10.688C94.7461 10.824 94.9981 11.04 95.1581 11.336C95.3261 11.624 95.4101 12.004 95.4101 12.476V17H94.6781L94.4981 16.268C94.4661 16.3 94.3661 16.356 94.1981 16.436C94.0381 16.516 93.8301 16.608 93.5741 16.712C93.3261 16.808 93.0541 16.892 92.7581 16.964C92.4701 17.036 92.1861 17.072 91.9061 17.072ZM92.3021 16.364C92.4461 16.372 92.6101 16.356 92.7941 16.316C92.9781 16.276 93.1661 16.232 93.3581 16.184C93.5501 16.128 93.7261 16.072 93.8861 16.016C94.0541 15.96 94.1901 15.912 94.2941 15.872C94.3981 15.832 94.4541 15.812 94.4621 15.812V13.796L92.5061 13.88C92.0501 13.896 91.7221 14.008 91.5221 14.216C91.3301 14.424 91.2341 14.692 91.2341 15.02V15.308C91.2341 15.564 91.2861 15.772 91.3901 15.932C91.5021 16.084 91.6381 16.192 91.7981 16.256C91.9661 16.32 92.1341 16.356 92.3021 16.364ZM99.7412 17.072C99.2772 17.072 98.8692 17.024 98.5172 16.928C98.1732 16.832 97.8852 16.664 97.6532 16.424C97.4212 16.184 97.2492 15.852 97.1372 15.428C97.0252 14.996 96.9692 14.448 96.9692 13.784C96.9692 13.112 97.0252 12.564 97.1372 12.14C97.2492 11.708 97.4212 11.376 97.6532 11.144C97.8852 10.904 98.1732 10.74 98.5172 10.652C98.8692 10.556 99.2772 10.508 99.7412 10.508C100.205 10.508 100.609 10.556 100.953 10.652C101.305 10.748 101.597 10.916 101.829 11.156C102.061 11.388 102.233 11.72 102.345 12.152C102.465 12.576 102.525 13.12 102.525 13.784C102.525 14.456 102.465 15.008 102.345 15.44C102.233 15.864 102.061 16.196 101.829 16.436C101.605 16.668 101.317 16.832 100.965 16.928C100.613 17.024 100.205 17.072 99.7412 17.072ZM99.7412 16.292C100.037 16.292 100.297 16.264 100.521 16.208C100.753 16.152 100.945 16.04 101.097 15.872C101.249 15.704 101.365 15.452 101.445 15.116C101.525 14.78 101.565 14.336 101.565 13.784C101.565 13.224 101.525 12.78 101.445 12.452C101.365 12.124 101.249 11.876 101.097 11.708C100.945 11.54 100.753 11.428 100.521 11.372C100.297 11.316 100.037 11.288 99.7412 11.288C99.4372 11.288 99.1732 11.316 98.9492 11.372C98.7252 11.428 98.5372 11.54 98.3852 11.708C98.2332 11.876 98.1172 12.124 98.0372 12.452C97.9572 12.78 97.9172 13.224 97.9172 13.784C97.9172 14.336 97.9572 14.78 98.0372 15.116C98.1172 15.452 98.2332 15.704 98.3852 15.872C98.5372 16.04 98.7252 16.152 98.9492 16.208C99.1732 16.264 99.4372 16.292 99.7412 16.292ZM106.199 17.072C105.671 17.072 105.235 16.96 104.891 16.736C104.555 16.504 104.303 16.152 104.135 15.68C103.975 15.2 103.895 14.588 103.895 13.844C103.895 13.052 103.975 12.412 104.135 11.924C104.295 11.428 104.551 11.068 104.903 10.844C105.255 10.62 105.727 10.508 106.319 10.508C106.679 10.508 107.031 10.548 107.375 10.628C107.719 10.708 108.023 10.796 108.287 10.892V7.844H109.235V17H108.467L108.287 16.352C108.167 16.456 107.987 16.564 107.747 16.676C107.515 16.788 107.259 16.884 106.979 16.964C106.707 17.036 106.447 17.072 106.199 17.072ZM106.475 16.292C106.843 16.292 107.175 16.236 107.471 16.124C107.775 16.004 108.047 15.88 108.287 15.752V11.564C107.999 11.476 107.723 11.404 107.459 11.348C107.195 11.284 106.899 11.252 106.571 11.252C106.163 11.252 105.831 11.328 105.575 11.48C105.319 11.632 105.131 11.896 105.011 12.272C104.899 12.64 104.843 13.152 104.843 13.808C104.843 14.4 104.895 14.88 104.999 15.248C105.111 15.616 105.287 15.884 105.527 16.052C105.767 16.212 106.083 16.292 106.475 16.292ZM116.804 17.072C116.34 17.072 115.932 17.024 115.58 16.928C115.236 16.832 114.948 16.664 114.716 16.424C114.484 16.184 114.312 15.852 114.2 15.428C114.088 14.996 114.032 14.448 114.032 13.784C114.032 13.112 114.088 12.564 114.2 12.14C114.312 11.708 114.484 11.376 114.716 11.144C114.948 10.904 115.236 10.74 115.58 10.652C115.932 10.556 116.34 10.508 116.804 10.508C117.268 10.508 117.672 10.556 118.016 10.652C118.368 10.748 118.66 10.916 118.892 11.156C119.124 11.388 119.296 11.72 119.408 12.152C119.528 12.576 119.588 13.12 119.588 13.784C119.588 14.456 119.528 15.008 119.408 15.44C119.296 15.864 119.124 16.196 118.892 16.436C118.668 16.668 118.38 16.832 118.028 16.928C117.676 17.024 117.268 17.072 116.804 17.072ZM116.804 16.292C117.1 16.292 117.36 16.264 117.584 16.208C117.816 16.152 118.008 16.04 118.16 15.872C118.312 15.704 118.428 15.452 118.508 15.116C118.588 14.78 118.628 14.336 118.628 13.784C118.628 13.224 118.588 12.78 118.508 12.452C118.428 12.124 118.312 11.876 118.16 11.708C118.008 11.54 117.816 11.428 117.584 11.372C117.36 11.316 117.1 11.288 116.804 11.288C116.5 11.288 116.236 11.316 116.012 11.372C115.788 11.428 115.6 11.54 115.448 11.708C115.296 11.876 115.18 12.124 115.1 12.452C115.02 12.78 114.98 13.224 114.98 13.784C114.98 14.336 115.02 14.78 115.1 15.116C115.18 15.452 115.296 15.704 115.448 15.872C115.6 16.04 115.788 16.152 116.012 16.208C116.236 16.264 116.5 16.292 116.804 16.292ZM121.185 17V10.592H121.929L122.133 11.3C122.437 11.084 122.793 10.896 123.201 10.736C123.609 10.568 124.033 10.484 124.473 10.484C124.945 10.484 125.325 10.584 125.613 10.784C125.901 10.984 126.113 11.248 126.249 11.576C126.385 11.904 126.453 12.26 126.453 12.644V17H125.505V12.752C125.505 12.48 125.449 12.24 125.337 12.032C125.233 11.816 125.081 11.648 124.881 11.528C124.689 11.408 124.449 11.348 124.161 11.348C123.897 11.348 123.649 11.376 123.417 11.432C123.193 11.48 122.977 11.552 122.769 11.648C122.569 11.736 122.357 11.844 122.133 11.972V17H121.185ZM133.599 17C133.183 17 132.839 16.932 132.567 16.796C132.295 16.66 132.095 16.44 131.967 16.136C131.839 15.832 131.779 15.428 131.787 14.924L131.823 11.372H130.803V10.76L131.835 10.592L131.991 8.804H132.723V10.592H134.571V11.372H132.723V14.924C132.723 15.204 132.751 15.428 132.807 15.596C132.871 15.764 132.951 15.892 133.047 15.98C133.151 16.068 133.259 16.132 133.371 16.172C133.483 16.204 133.591 16.224 133.695 16.232L134.475 16.304V17H133.599ZM135.881 17V7.844H136.829V11.3C137.125 11.084 137.477 10.896 137.885 10.736C138.301 10.568 138.733 10.484 139.181 10.484C139.629 10.484 139.997 10.58 140.285 10.772C140.581 10.964 140.797 11.224 140.933 11.552C141.077 11.88 141.149 12.244 141.149 12.644V17H140.201V12.74C140.201 12.468 140.145 12.228 140.033 12.02C139.929 11.812 139.777 11.648 139.577 11.528C139.377 11.408 139.137 11.348 138.857 11.348C138.593 11.348 138.349 11.376 138.125 11.432C137.901 11.48 137.685 11.552 137.477 11.648C137.269 11.736 137.053 11.844 136.829 11.972V17H135.881ZM145.383 17.072C144.711 17.072 144.179 16.972 143.787 16.772C143.403 16.572 143.127 16.232 142.959 15.752C142.791 15.272 142.707 14.616 142.707 13.784C142.707 12.936 142.791 12.276 142.959 11.804C143.135 11.324 143.419 10.988 143.811 10.796C144.203 10.604 144.731 10.508 145.395 10.508C145.963 10.508 146.423 10.572 146.775 10.7C147.135 10.828 147.399 11.048 147.567 11.36C147.743 11.664 147.831 12.088 147.831 12.632C147.831 13.008 147.755 13.312 147.603 13.544C147.459 13.768 147.247 13.932 146.967 14.036C146.695 14.132 146.371 14.18 145.995 14.18H143.655C143.663 14.7 143.719 15.12 143.823 15.44C143.927 15.752 144.115 15.98 144.387 16.124C144.667 16.26 145.075 16.328 145.611 16.328H147.675V16.904C147.307 16.952 146.947 16.992 146.595 17.024C146.243 17.056 145.839 17.072 145.383 17.072ZM143.643 13.556H145.923C146.283 13.556 146.547 13.492 146.715 13.364C146.891 13.228 146.979 12.988 146.979 12.644C146.979 12.276 146.923 11.992 146.811 11.792C146.707 11.584 146.539 11.44 146.307 11.36C146.083 11.272 145.779 11.228 145.395 11.228C144.947 11.228 144.595 11.296 144.339 11.432C144.083 11.56 143.903 11.792 143.799 12.128C143.695 12.464 143.643 12.94 143.643 13.556Z" fill="white"/>
<path d="M55.345 37L58.945 25.93H61.285L64.885 37H62.95L62.095 34.375H58.09L57.25 37H55.345ZM58.525 32.71H61.645L60.085 27.52L58.525 32.71ZM67.355 40.555V28.96H68.9L69.215 29.755C69.405 29.605 69.625 29.46 69.875 29.32C70.125 29.18 70.395 29.07 70.685 28.99C70.975 28.9 71.275 28.855 71.585 28.855C72.095 28.855 72.53 28.955 72.89 29.155C73.26 29.355 73.56 29.64 73.79 30.01C74.02 30.37 74.185 30.805 74.285 31.315C74.395 31.815 74.45 32.37 74.45 32.98C74.45 33.86 74.355 34.61 74.165 35.23C73.985 35.84 73.685 36.305 73.265 36.625C72.855 36.945 72.295 37.105 71.585 37.105C71.185 37.105 70.775 37.05 70.355 36.94C69.945 36.83 69.565 36.685 69.215 36.505V40.555H67.355ZM71 35.575C71.29 35.575 71.555 35.5 71.795 35.35C72.035 35.19 72.225 34.925 72.365 34.555C72.515 34.185 72.59 33.66 72.59 32.98C72.59 32.33 72.52 31.81 72.38 31.42C72.24 31.03 72.05 30.755 71.81 30.595C71.58 30.435 71.315 30.355 71.015 30.355C70.645 30.355 70.31 30.415 70.01 30.535C69.71 30.645 69.445 30.76 69.215 30.88V35.08C69.475 35.23 69.76 35.35 70.07 35.44C70.38 35.53 70.69 35.575 71 35.575ZM77.3001 40.555V28.96H78.8451L79.1601 29.755C79.3501 29.605 79.5701 29.46 79.8201 29.32C80.0701 29.18 80.3401 29.07 80.6301 28.99C80.9201 28.9 81.2201 28.855 81.5301 28.855C82.0401 28.855 82.4751 28.955 82.8351 29.155C83.2051 29.355 83.5051 29.64 83.7351 30.01C83.9651 30.37 84.1301 30.805 84.2301 31.315C84.3401 31.815 84.3951 32.37 84.3951 32.98C84.3951 33.86 84.3001 34.61 84.1101 35.23C83.9301 35.84 83.6301 36.305 83.2101 36.625C82.8001 36.945 82.2401 37.105 81.5301 37.105C81.1301 37.105 80.7201 37.05 80.3001 36.94C79.8901 36.83 79.5101 36.685 79.1601 36.505V40.555H77.3001ZM80.9451 35.575C81.2351 35.575 81.5001 35.5 81.7401 35.35C81.9801 35.19 82.1701 34.925 82.3101 34.555C82.4601 34.185 82.5351 33.66 82.5351 32.98C82.5351 32.33 82.4651 31.81 82.3251 31.42C82.1851 31.03 81.9951 30.755 81.7551 30.595C81.5251 30.435 81.2601 30.355 80.9601 30.355C80.5901 30.355 80.2551 30.415 79.9551 30.535C79.6551 30.645 79.3901 30.76 79.1601 30.88V35.08C79.4201 35.23 79.7051 35.35 80.0151 35.44C80.3251 35.53 80.6351 35.575 80.9451 35.575ZM89.6302 37.03C89.1002 37.03 88.6552 36.94 88.2952 36.76C87.9452 36.58 87.6802 36.3 87.5002 35.92C87.3302 35.54 87.2452 35.035 87.2452 34.405V25.555H89.1052V34.15C89.1052 34.51 89.1402 34.79 89.2102 34.99C89.2902 35.19 89.4002 35.335 89.5402 35.425C89.6802 35.505 89.8502 35.56 90.0502 35.59L90.7252 35.68V37.03H89.6302ZM96.3152 37.075C95.4452 37.075 94.7502 36.955 94.2302 36.715C93.7202 36.475 93.3502 36.06 93.1202 35.47C92.8902 34.87 92.7752 34.04 92.7752 32.98C92.7752 31.9 92.8852 31.065 93.1052 30.475C93.3252 29.875 93.6902 29.455 94.2002 29.215C94.7102 28.975 95.4002 28.855 96.2702 28.855C97.0402 28.855 97.6552 28.935 98.1152 29.095C98.5852 29.245 98.9252 29.52 99.1352 29.92C99.3552 30.31 99.4652 30.865 99.4652 31.585C99.4652 32.095 99.3652 32.505 99.1652 32.815C98.9652 33.115 98.6752 33.33 98.2952 33.46C97.9252 33.59 97.4852 33.655 96.9752 33.655H94.6202C94.6402 34.155 94.7052 34.555 94.8152 34.855C94.9352 35.145 95.1452 35.355 95.4452 35.485C95.7552 35.615 96.2052 35.68 96.7952 35.68H99.2252V36.775C98.8152 36.855 98.3802 36.925 97.9202 36.985C97.4702 37.045 96.9352 37.075 96.3152 37.075ZM94.6052 32.53H96.7952C97.1452 32.53 97.4002 32.465 97.5602 32.335C97.7302 32.195 97.8152 31.945 97.8152 31.585C97.8152 31.235 97.7652 30.96 97.6652 30.76C97.5652 30.56 97.4002 30.42 97.1702 30.34C96.9402 30.25 96.6402 30.205 96.2702 30.205C95.8502 30.205 95.5202 30.27 95.2802 30.4C95.0402 30.53 94.8652 30.765 94.7552 31.105C94.6552 31.435 94.6052 31.91 94.6052 32.53ZM110.802 37.09C110.532 37.09 110.242 37.08 109.932 37.06C109.632 37.05 109.322 37.03 109.002 37C108.692 36.96 108.397 36.925 108.117 36.895C107.837 36.855 107.587 36.81 107.367 36.76V35.305C107.647 35.325 107.972 35.345 108.342 35.365C108.722 35.385 109.117 35.4 109.527 35.41C109.937 35.42 110.332 35.425 110.712 35.425C111.112 35.425 111.467 35.39 111.777 35.32C112.087 35.24 112.327 35.105 112.497 34.915C112.667 34.725 112.752 34.455 112.752 34.105V33.58C112.752 33.19 112.642 32.89 112.422 32.68C112.202 32.47 111.877 32.365 111.447 32.365H110.412C109.402 32.365 108.622 32.145 108.072 31.705C107.532 31.265 107.262 30.51 107.262 29.44V28.87C107.262 27.8 107.557 27.03 108.147 26.56C108.747 26.08 109.602 25.84 110.712 25.84C111.092 25.84 111.482 25.86 111.882 25.9C112.292 25.93 112.682 25.97 113.052 26.02C113.422 26.07 113.737 26.125 113.997 26.185V27.64C113.557 27.61 113.052 27.58 112.482 27.55C111.922 27.52 111.402 27.505 110.922 27.505C110.542 27.505 110.207 27.545 109.917 27.625C109.627 27.705 109.407 27.85 109.257 28.06C109.107 28.26 109.032 28.56 109.032 28.96V29.32C109.032 29.79 109.157 30.12 109.407 30.31C109.667 30.5 110.037 30.595 110.517 30.595H111.672C112.322 30.595 112.857 30.715 113.277 30.955C113.697 31.195 114.007 31.525 114.207 31.945C114.417 32.355 114.522 32.825 114.522 33.355V34.06C114.522 34.88 114.362 35.51 114.042 35.95C113.722 36.39 113.282 36.69 112.722 36.85C112.162 37.01 111.522 37.09 110.802 37.09ZM120.341 37C119.761 37 119.286 36.915 118.916 36.745C118.546 36.565 118.276 36.27 118.106 35.86C117.946 35.45 117.871 34.91 117.881 34.24L117.941 30.46H116.681V29.26L118.001 28.96L118.271 26.71H119.726V28.96H121.766V30.46H119.726V34.225C119.726 34.485 119.751 34.7 119.801 34.87C119.851 35.03 119.921 35.16 120.011 35.26C120.111 35.35 120.216 35.415 120.326 35.455C120.436 35.495 120.551 35.52 120.671 35.53L121.676 35.635V37H120.341ZM127.689 37.075C127.059 37.075 126.514 37.01 126.054 36.88C125.594 36.75 125.219 36.53 124.929 36.22C124.639 35.91 124.424 35.49 124.284 34.96C124.144 34.43 124.074 33.765 124.074 32.965C124.074 32.135 124.144 31.455 124.284 30.925C124.424 30.385 124.639 29.965 124.929 29.665C125.229 29.355 125.609 29.145 126.069 29.035C126.529 28.915 127.069 28.855 127.689 28.855C128.329 28.855 128.879 28.92 129.339 29.05C129.799 29.17 130.174 29.38 130.464 29.68C130.754 29.98 130.969 30.4 131.109 30.94C131.249 31.47 131.319 32.145 131.319 32.965C131.319 33.775 131.249 34.45 131.109 34.99C130.979 35.52 130.769 35.94 130.479 36.25C130.189 36.55 129.814 36.765 129.354 36.895C128.894 37.015 128.339 37.075 127.689 37.075ZM127.689 35.59C127.999 35.59 128.264 35.565 128.484 35.515C128.704 35.455 128.884 35.34 129.024 35.17C129.174 34.99 129.284 34.725 129.354 34.375C129.424 34.015 129.459 33.54 129.459 32.95C129.459 32.37 129.424 31.905 129.354 31.555C129.284 31.205 129.174 30.945 129.024 30.775C128.884 30.595 128.704 30.48 128.484 30.43C128.264 30.37 127.999 30.34 127.689 30.34C127.389 30.34 127.129 30.37 126.909 30.43C126.689 30.48 126.509 30.595 126.369 30.775C126.229 30.945 126.119 31.205 126.039 31.555C125.969 31.905 125.934 32.37 125.934 32.95C125.934 33.54 125.969 34.015 126.039 34.375C126.119 34.725 126.229 34.99 126.369 35.17C126.509 35.34 126.689 35.455 126.909 35.515C127.129 35.565 127.389 35.59 127.689 35.59ZM134.172 37V28.96H135.612L136.032 30.25C136.352 29.86 136.707 29.53 137.097 29.26C137.487 28.99 137.952 28.855 138.492 28.855C138.602 28.855 138.717 28.865 138.837 28.885C138.957 28.895 139.067 28.915 139.167 28.945V30.835C139.027 30.815 138.877 30.8 138.717 30.79C138.557 30.78 138.402 30.775 138.252 30.775C137.942 30.775 137.657 30.81 137.397 30.88C137.147 30.95 136.912 31.06 136.692 31.21C136.472 31.35 136.252 31.53 136.032 31.75V37H134.172ZM144.941 37.075C144.071 37.075 143.376 36.955 142.856 36.715C142.346 36.475 141.976 36.06 141.746 35.47C141.516 34.87 141.401 34.04 141.401 32.98C141.401 31.9 141.511 31.065 141.731 30.475C141.951 29.875 142.316 29.455 142.826 29.215C143.336 28.975 144.026 28.855 144.896 28.855C145.666 28.855 146.281 28.935 146.741 29.095C147.211 29.245 147.551 29.52 147.761 29.92C147.981 30.31 148.091 30.865 148.091 31.585C148.091 32.095 147.991 32.505 147.791 32.815C147.591 33.115 147.301 33.33 146.921 33.46C146.551 33.59 146.111 33.655 145.601 33.655H143.246C143.266 34.155 143.331 34.555 143.441 34.855C143.561 35.145 143.771 35.355 144.071 35.485C144.381 35.615 144.831 35.68 145.421 35.68H147.851V36.775C147.441 36.855 147.006 36.925 146.546 36.985C146.096 37.045 145.561 37.075 144.941 37.075ZM143.231 32.53H145.421C145.771 32.53 146.026 32.465 146.186 32.335C146.356 32.195 146.441 31.945 146.441 31.585C146.441 31.235 146.391 30.96 146.291 30.76C146.191 30.56 146.026 30.42 145.796 30.34C145.566 30.25 145.266 30.205 144.896 30.205C144.476 30.205 144.146 30.27 143.906 30.4C143.666 30.53 143.491 30.765 143.381 31.105C143.281 31.435 143.231 31.91 143.231 32.53Z" fill="white"/>
</svg>
