<svg width="169" height="49" viewBox="0 0 169 49" fill="none" xmlns="http://www.w3.org/2000/svg">
<rect width="169" height="49" rx="5" fill="black"/>
<g clip-path="url(#clip0_1288_34168)">
<path d="M27.2149 24.5221L15.6068 36.1301C15.0519 35.6052 14.752 34.8853 14.752 34.1055V15.8985C14.752 15.1037 15.0669 14.3838 15.6368 13.8439L27.2149 24.5221Z" fill="#2196F3"/>
<path d="M37.2482 25.0021C37.2482 26.0519 36.6783 26.9817 35.7334 27.5066L32.434 29.3363L28.3397 25.557L27.2148 24.5221L31.5491 20.1879L35.7334 22.4975C36.6783 23.0224 37.2482 23.9522 37.2482 25.0021Z" fill="#FFC107"/>
<path d="M27.2148 24.5221L15.6367 13.8439C15.7867 13.6939 15.9817 13.559 16.1766 13.439C17.1215 12.8691 18.2613 12.8541 19.2361 13.394L31.549 20.1878L27.2148 24.5221Z" fill="#4CAF50"/>
<path d="M32.4339 29.3363L19.2361 36.6101C18.7712 36.88 18.2462 37 17.7363 37C17.1964 37 16.6565 36.865 16.1766 36.5651C15.9666 36.4451 15.7717 36.2951 15.6067 36.1301L27.2147 24.5221L28.3396 25.5569L32.4339 29.3363Z" fill="#F44336"/>
</g>
<path d="M49.54 17.06C48.98 17.068 48.516 16.984 48.148 16.808C47.78 16.624 47.492 16.348 47.284 15.98C47.076 15.612 46.928 15.144 46.84 14.576C46.752 14.008 46.708 13.336 46.708 12.56C46.708 11.816 46.752 11.164 46.84 10.604C46.936 10.044 47.096 9.58 47.32 9.212C47.544 8.836 47.848 8.556 48.232 8.372C48.624 8.188 49.112 8.096 49.696 8.096C50.008 8.096 50.332 8.108 50.668 8.132C51.004 8.156 51.332 8.192 51.652 8.24C51.972 8.288 52.268 8.344 52.54 8.408V9.128C52.38 9.104 52.156 9.08 51.868 9.056C51.58 9.024 51.256 9 50.896 8.984C50.544 8.968 50.192 8.96 49.84 8.96C49.264 8.96 48.816 9.08 48.496 9.32C48.184 9.552 47.964 9.936 47.836 10.472C47.716 11 47.656 11.7 47.656 12.572C47.656 13.276 47.688 13.86 47.752 14.324C47.824 14.788 47.94 15.156 48.1 15.428C48.26 15.7 48.476 15.896 48.748 16.016C49.028 16.128 49.38 16.184 49.804 16.184C50.18 16.184 50.568 16.136 50.968 16.04C51.368 15.944 51.708 15.84 51.988 15.728V13.124H49.852V12.416C50.004 12.392 50.188 12.372 50.404 12.356C50.62 12.34 50.848 12.328 51.088 12.32C51.336 12.304 51.584 12.296 51.832 12.296C52.04 12.296 52.236 12.3 52.42 12.308C52.604 12.308 52.764 12.32 52.9 12.344V17H52.204L52.06 16.376C51.772 16.52 51.404 16.668 50.956 16.82C50.516 16.972 50.044 17.052 49.54 17.06ZM57.1998 17.072C56.5278 17.072 55.9958 16.972 55.6038 16.772C55.2198 16.572 54.9438 16.232 54.7758 15.752C54.6078 15.272 54.5238 14.616 54.5238 13.784C54.5238 12.936 54.6078 12.276 54.7758 11.804C54.9518 11.324 55.2358 10.988 55.6278 10.796C56.0198 10.604 56.5478 10.508 57.2118 10.508C57.7798 10.508 58.2398 10.572 58.5918 10.7C58.9518 10.828 59.2158 11.048 59.3838 11.36C59.5598 11.664 59.6478 12.088 59.6478 12.632C59.6478 13.008 59.5718 13.312 59.4198 13.544C59.2758 13.768 59.0638 13.932 58.7838 14.036C58.5118 14.132 58.1878 14.18 57.8118 14.18H55.4718C55.4798 14.7 55.5358 15.12 55.6398 15.44C55.7438 15.752 55.9318 15.98 56.2038 16.124C56.4838 16.26 56.8918 16.328 57.4278 16.328H59.4918V16.904C59.1238 16.952 58.7638 16.992 58.4118 17.024C58.0598 17.056 57.6558 17.072 57.1998 17.072ZM55.4598 13.556H57.7398C58.0998 13.556 58.3638 13.492 58.5318 13.364C58.7078 13.228 58.7958 12.988 58.7958 12.644C58.7958 12.276 58.7398 11.992 58.6278 11.792C58.5238 11.584 58.3558 11.44 58.1238 11.36C57.8998 11.272 57.5958 11.228 57.2118 11.228C56.7638 11.228 56.4118 11.296 56.1558 11.432C55.8998 11.56 55.7198 11.792 55.6158 12.128C55.5118 12.464 55.4598 12.94 55.4598 13.556ZM63.368 17C62.952 17 62.608 16.932 62.336 16.796C62.064 16.66 61.864 16.44 61.736 16.136C61.608 15.832 61.548 15.428 61.556 14.924L61.592 11.372H60.572V10.76L61.604 10.592L61.76 8.804H62.492V10.592H64.34V11.372H62.492V14.924C62.492 15.204 62.52 15.428 62.576 15.596C62.64 15.764 62.72 15.892 62.816 15.98C62.92 16.068 63.028 16.132 63.14 16.172C63.252 16.204 63.36 16.224 63.464 16.232L64.244 16.304V17H63.368ZM69.0287 9.452C68.9007 9.452 68.8367 9.388 68.8367 9.26V8.324C68.8367 8.196 68.9007 8.132 69.0287 8.132H69.7007C69.7647 8.132 69.8087 8.152 69.8327 8.192C69.8647 8.224 69.8807 8.268 69.8807 8.324V9.26C69.8807 9.388 69.8207 9.452 69.7007 9.452H69.0287ZM68.8847 17V10.592H69.8327V17H68.8847ZM71.662 17V10.592H72.406L72.61 11.3C72.914 11.084 73.27 10.896 73.678 10.736C74.086 10.568 74.51 10.484 74.95 10.484C75.422 10.484 75.802 10.584 76.09 10.784C76.378 10.984 76.59 11.248 76.726 11.576C76.862 11.904 76.93 12.26 76.93 12.644V17H75.982V12.752C75.982 12.48 75.926 12.24 75.814 12.032C75.71 11.816 75.558 11.648 75.358 11.528C75.166 11.408 74.926 11.348 74.638 11.348C74.374 11.348 74.126 11.376 73.894 11.432C73.67 11.48 73.454 11.552 73.246 11.648C73.046 11.736 72.834 11.844 72.61 11.972V17H71.662ZM84.4951 17.072C84.0311 17.072 83.6231 17.024 83.2711 16.928C82.9271 16.832 82.6391 16.664 82.4071 16.424C82.1751 16.184 82.0031 15.852 81.8911 15.428C81.7791 14.996 81.7231 14.448 81.7231 13.784C81.7231 13.112 81.7791 12.564 81.8911 12.14C82.0031 11.708 82.1751 11.376 82.4071 11.144C82.6391 10.904 82.9271 10.74 83.2711 10.652C83.6231 10.556 84.0311 10.508 84.4951 10.508C84.9591 10.508 85.3631 10.556 85.7071 10.652C86.0591 10.748 86.3511 10.916 86.5831 11.156C86.8151 11.388 86.9871 11.72 87.0991 12.152C87.2191 12.576 87.2791 13.12 87.2791 13.784C87.2791 14.456 87.2191 15.008 87.0991 15.44C86.9871 15.864 86.8151 16.196 86.5831 16.436C86.3591 16.668 86.0711 16.832 85.7191 16.928C85.3671 17.024 84.9591 17.072 84.4951 17.072ZM84.4951 16.292C84.7911 16.292 85.0511 16.264 85.2751 16.208C85.5071 16.152 85.6991 16.04 85.8511 15.872C86.0031 15.704 86.1191 15.452 86.1991 15.116C86.2791 14.78 86.3191 14.336 86.3191 13.784C86.3191 13.224 86.2791 12.78 86.1991 12.452C86.1191 12.124 86.0031 11.876 85.8511 11.708C85.6991 11.54 85.5071 11.428 85.2751 11.372C85.0511 11.316 84.7911 11.288 84.4951 11.288C84.1911 11.288 83.9271 11.316 83.7031 11.372C83.4791 11.428 83.2911 11.54 83.1391 11.708C82.9871 11.876 82.8711 12.124 82.7911 12.452C82.7111 12.78 82.6711 13.224 82.6711 13.784C82.6711 14.336 82.7111 14.78 82.7911 15.116C82.8711 15.452 82.9871 15.704 83.1391 15.872C83.2911 16.04 83.4791 16.152 83.7031 16.208C83.9271 16.264 84.1911 16.292 84.4951 16.292ZM88.8768 17V10.592H89.6208L89.8248 11.3C90.1288 11.084 90.4848 10.896 90.8928 10.736C91.3008 10.568 91.7248 10.484 92.1648 10.484C92.6368 10.484 93.0168 10.584 93.3048 10.784C93.5928 10.984 93.8048 11.248 93.9408 11.576C94.0768 11.904 94.1448 12.26 94.1448 12.644V17H93.1968V12.752C93.1968 12.48 93.1408 12.24 93.0288 12.032C92.9248 11.816 92.7728 11.648 92.5728 11.528C92.3808 11.408 92.1408 11.348 91.8528 11.348C91.5888 11.348 91.3408 11.376 91.1088 11.432C90.8848 11.48 90.6688 11.552 90.4608 11.648C90.2608 11.736 90.0488 11.844 89.8248 11.972V17H88.8768Z" fill="white"/>
<path d="M50.215 37.075C49.515 37.075 48.94 36.95 48.49 36.7C48.05 36.45 47.7 36.085 47.44 35.605C47.19 35.125 47.01 34.535 46.9 33.835C46.8 33.135 46.75 32.34 46.75 31.45C46.75 30.54 46.805 29.735 46.915 29.035C47.035 28.335 47.24 27.75 47.53 27.28C47.82 26.8 48.22 26.44 48.73 26.2C49.25 25.95 49.915 25.825 50.725 25.825C51.185 25.825 51.625 25.845 52.045 25.885C52.465 25.915 52.87 25.965 53.26 26.035C53.65 26.105 54.03 26.185 54.4 26.275V27.7C54.19 27.67 53.905 27.64 53.545 27.61C53.195 27.58 52.805 27.555 52.375 27.535C51.945 27.505 51.5 27.49 51.04 27.49C50.38 27.49 49.875 27.62 49.525 27.88C49.175 28.13 48.935 28.545 48.805 29.125C48.675 29.705 48.61 30.485 48.61 31.465C48.61 32.235 48.645 32.875 48.715 33.385C48.785 33.885 48.9 34.285 49.06 34.585C49.23 34.875 49.455 35.08 49.735 35.2C50.025 35.31 50.375 35.365 50.785 35.365C51.225 35.365 51.65 35.325 52.06 35.245C52.48 35.155 52.83 35.06 53.11 34.96V32.41H50.875V30.97C51.075 30.94 51.315 30.915 51.595 30.895C51.885 30.875 52.185 30.86 52.495 30.85C52.805 30.83 53.11 30.82 53.41 30.82C53.71 30.82 53.98 30.825 54.22 30.835C54.47 30.835 54.695 30.845 54.895 30.865V37H53.5L53.245 36.235C52.935 36.415 52.51 36.6 51.97 36.79C51.43 36.98 50.845 37.075 50.215 37.075ZM61.422 37.075C60.792 37.075 60.247 37.01 59.787 36.88C59.327 36.75 58.952 36.53 58.662 36.22C58.372 35.91 58.157 35.49 58.017 34.96C57.877 34.43 57.807 33.765 57.807 32.965C57.807 32.135 57.877 31.455 58.017 30.925C58.157 30.385 58.372 29.965 58.662 29.665C58.962 29.355 59.342 29.145 59.802 29.035C60.262 28.915 60.802 28.855 61.422 28.855C62.062 28.855 62.612 28.92 63.072 29.05C63.532 29.17 63.907 29.38 64.197 29.68C64.487 29.98 64.702 30.4 64.842 30.94C64.982 31.47 65.052 32.145 65.052 32.965C65.052 33.775 64.982 34.45 64.842 34.99C64.712 35.52 64.502 35.94 64.212 36.25C63.922 36.55 63.547 36.765 63.087 36.895C62.627 37.015 62.072 37.075 61.422 37.075ZM61.422 35.59C61.732 35.59 61.997 35.565 62.217 35.515C62.437 35.455 62.617 35.34 62.757 35.17C62.907 34.99 63.017 34.725 63.087 34.375C63.157 34.015 63.192 33.54 63.192 32.95C63.192 32.37 63.157 31.905 63.087 31.555C63.017 31.205 62.907 30.945 62.757 30.775C62.617 30.595 62.437 30.48 62.217 30.43C61.997 30.37 61.732 30.34 61.422 30.34C61.122 30.34 60.862 30.37 60.642 30.43C60.422 30.48 60.242 30.595 60.102 30.775C59.962 30.945 59.852 31.205 59.772 31.555C59.702 31.905 59.667 32.37 59.667 32.95C59.667 33.54 59.702 34.015 59.772 34.375C59.852 34.725 59.962 34.99 60.102 35.17C60.242 35.34 60.422 35.455 60.642 35.515C60.862 35.565 61.122 35.59 61.422 35.59ZM71.2646 37.075C70.6346 37.075 70.0896 37.01 69.6296 36.88C69.1696 36.75 68.7946 36.53 68.5046 36.22C68.2146 35.91 67.9996 35.49 67.8596 34.96C67.7196 34.43 67.6496 33.765 67.6496 32.965C67.6496 32.135 67.7196 31.455 67.8596 30.925C67.9996 30.385 68.2146 29.965 68.5046 29.665C68.8046 29.355 69.1846 29.145 69.6446 29.035C70.1046 28.915 70.6446 28.855 71.2646 28.855C71.9046 28.855 72.4546 28.92 72.9146 29.05C73.3746 29.17 73.7496 29.38 74.0396 29.68C74.3296 29.98 74.5446 30.4 74.6846 30.94C74.8246 31.47 74.8946 32.145 74.8946 32.965C74.8946 33.775 74.8246 34.45 74.6846 34.99C74.5546 35.52 74.3446 35.94 74.0546 36.25C73.7646 36.55 73.3896 36.765 72.9296 36.895C72.4696 37.015 71.9146 37.075 71.2646 37.075ZM71.2646 35.59C71.5746 35.59 71.8396 35.565 72.0596 35.515C72.2796 35.455 72.4596 35.34 72.5996 35.17C72.7496 34.99 72.8596 34.725 72.9296 34.375C72.9996 34.015 73.0346 33.54 73.0346 32.95C73.0346 32.37 72.9996 31.905 72.9296 31.555C72.8596 31.205 72.7496 30.945 72.5996 30.775C72.4596 30.595 72.2796 30.48 72.0596 30.43C71.8396 30.37 71.5746 30.34 71.2646 30.34C70.9646 30.34 70.7046 30.37 70.4846 30.43C70.2646 30.48 70.0846 30.595 69.9446 30.775C69.8046 30.945 69.6946 31.205 69.6146 31.555C69.5446 31.905 69.5096 32.37 69.5096 32.95C69.5096 33.54 69.5446 34.015 69.6146 34.375C69.6946 34.725 69.8046 34.99 69.9446 35.17C70.0846 35.34 70.2646 35.455 70.4846 35.515C70.7046 35.565 70.9646 35.59 71.2646 35.59ZM79.8021 40.705C79.2921 40.705 78.8371 40.63 78.4371 40.48C78.0371 40.34 77.7221 40.12 77.4921 39.82C77.2721 39.53 77.1621 39.175 77.1621 38.755V38.47C77.1621 38.03 77.2871 37.655 77.5371 37.345C77.7871 37.045 78.1071 36.815 78.4971 36.655C78.8871 36.495 79.2921 36.415 79.7121 36.415L80.2521 37.03C80.0021 37.03 79.7771 37.07 79.5771 37.15C79.3771 37.23 79.2171 37.35 79.0971 37.51C78.9771 37.67 78.9171 37.87 78.9171 38.11V38.35C78.9171 38.71 79.0371 38.97 79.2771 39.13C79.5171 39.3 79.8571 39.385 80.2971 39.385H81.9321C82.3921 39.385 82.7521 39.295 83.0121 39.115C83.2821 38.945 83.4171 38.68 83.4171 38.32V38.065C83.4171 37.845 83.3721 37.66 83.2821 37.51C83.1921 37.36 83.0471 37.24 82.8471 37.15C82.6471 37.07 82.3771 37.03 82.0371 37.03H80.0271C79.2271 37.03 78.6221 36.875 78.2121 36.565C77.8121 36.255 77.6121 35.865 77.6121 35.395C77.6121 34.995 77.7271 34.665 77.9571 34.405C78.1971 34.145 78.5271 33.97 78.9471 33.88C78.6071 33.72 78.3371 33.515 78.1371 33.265C77.9471 33.015 77.8121 32.745 77.7321 32.455C77.6521 32.165 77.6121 31.87 77.6121 31.57C77.6121 30.96 77.7371 30.465 77.9871 30.085C78.2371 29.695 78.6021 29.41 79.0821 29.23C79.5621 29.04 80.1571 28.945 80.8671 28.945H85.2021V29.98L83.7771 30.175C83.8771 30.275 83.9821 30.395 84.0921 30.535C84.2121 30.675 84.3121 30.86 84.3921 31.09C84.4721 31.32 84.5121 31.62 84.5121 31.99C84.5121 32.44 84.4171 32.85 84.2271 33.22C84.0471 33.59 83.7471 33.885 83.3271 34.105C82.9071 34.325 82.3421 34.435 81.6321 34.435H80.2671C79.9471 34.435 79.6871 34.485 79.4871 34.585C79.2871 34.685 79.1871 34.855 79.1871 35.095C79.1871 35.295 79.2671 35.435 79.4271 35.515C79.5871 35.595 79.7571 35.635 79.9371 35.635H82.3221C82.9321 35.635 83.4471 35.715 83.8671 35.875C84.2971 36.035 84.6221 36.285 84.8421 36.625C85.0621 36.965 85.1721 37.415 85.1721 37.975V38.23C85.1721 39 84.9221 39.605 84.4221 40.045C83.9321 40.485 83.1771 40.705 82.1571 40.705H79.8021ZM80.5671 33.04H81.4371C81.8071 33.04 82.0921 32.985 82.2921 32.875C82.5021 32.755 82.6421 32.6 82.7121 32.41C82.7921 32.21 82.8321 31.99 82.8321 31.75C82.8321 31.41 82.7771 31.14 82.6671 30.94C82.5671 30.73 82.4171 30.58 82.2171 30.49C82.0271 30.4 81.7921 30.355 81.5121 30.355H80.6721C80.2221 30.355 79.8771 30.455 79.6371 30.655C79.4071 30.855 79.2921 31.195 79.2921 31.675C79.2921 32.155 79.4021 32.505 79.6221 32.725C79.8421 32.935 80.1571 33.04 80.5671 33.04ZM90.0333 37.03C89.5033 37.03 89.0583 36.94 88.6983 36.76C88.3483 36.58 88.0833 36.3 87.9033 35.92C87.7333 35.54 87.6483 35.035 87.6483 34.405V25.555H89.5083V34.15C89.5083 34.51 89.5433 34.79 89.6133 34.99C89.6933 35.19 89.8033 35.335 89.9433 35.425C90.0833 35.505 90.2533 35.56 90.4533 35.59L91.1283 35.68V37.03H90.0333ZM96.7183 37.075C95.8483 37.075 95.1533 36.955 94.6333 36.715C94.1233 36.475 93.7533 36.06 93.5233 35.47C93.2933 34.87 93.1783 34.04 93.1783 32.98C93.1783 31.9 93.2883 31.065 93.5083 30.475C93.7283 29.875 94.0933 29.455 94.6033 29.215C95.1133 28.975 95.8033 28.855 96.6733 28.855C97.4433 28.855 98.0583 28.935 98.5183 29.095C98.9883 29.245 99.3283 29.52 99.5383 29.92C99.7583 30.31 99.8683 30.865 99.8683 31.585C99.8683 32.095 99.7683 32.505 99.5683 32.815C99.3683 33.115 99.0783 33.33 98.6983 33.46C98.3283 33.59 97.8883 33.655 97.3783 33.655H95.0233C95.0433 34.155 95.1083 34.555 95.2183 34.855C95.3383 35.145 95.5483 35.355 95.8483 35.485C96.1583 35.615 96.6083 35.68 97.1983 35.68H99.6283V36.775C99.2183 36.855 98.7833 36.925 98.3233 36.985C97.8733 37.045 97.3383 37.075 96.7183 37.075ZM95.0083 32.53H97.1983C97.5483 32.53 97.8033 32.465 97.9633 32.335C98.1333 32.195 98.2183 31.945 98.2183 31.585C98.2183 31.235 98.1683 30.96 98.0683 30.76C97.9683 30.56 97.8033 30.42 97.5733 30.34C97.3433 30.25 97.0433 30.205 96.6733 30.205C96.2533 30.205 95.9233 30.27 95.6833 30.4C95.4433 30.53 95.2683 30.765 95.1583 31.105C95.0583 31.435 95.0083 31.91 95.0083 32.53ZM107.935 37V25.93H112.51C112.86 25.93 113.215 25.975 113.575 26.065C113.935 26.145 114.265 26.31 114.565 26.56C114.875 26.81 115.12 27.18 115.3 27.67C115.49 28.16 115.585 28.815 115.585 29.635C115.585 30.455 115.49 31.115 115.3 31.615C115.11 32.115 114.86 32.5 114.55 32.77C114.25 33.03 113.92 33.21 113.56 33.31C113.21 33.4 112.87 33.445 112.54 33.445C112.37 33.445 112.155 33.44 111.895 33.43C111.645 33.41 111.38 33.39 111.1 33.37C110.83 33.34 110.575 33.315 110.335 33.295C110.105 33.265 109.92 33.24 109.78 33.22V37H107.935ZM109.78 31.765H112.27C112.56 31.765 112.815 31.7 113.035 31.57C113.255 31.43 113.425 31.21 113.545 30.91C113.665 30.6 113.725 30.18 113.725 29.65C113.725 29.13 113.66 28.72 113.53 28.42C113.41 28.12 113.245 27.91 113.035 27.79C112.835 27.66 112.6 27.595 112.33 27.595H109.78V31.765ZM120.659 37.03C120.129 37.03 119.684 36.94 119.324 36.76C118.974 36.58 118.709 36.3 118.529 35.92C118.359 35.54 118.274 35.035 118.274 34.405V25.555H120.134V34.15C120.134 34.51 120.169 34.79 120.239 34.99C120.319 35.19 120.429 35.335 120.569 35.425C120.709 35.505 120.879 35.56 121.079 35.59L121.754 35.68V37.03H120.659ZM125.723 37.09C125.123 37.09 124.633 36.91 124.253 36.55C123.873 36.19 123.683 35.695 123.683 35.065V34.39C123.683 33.77 123.893 33.265 124.313 32.875C124.743 32.485 125.398 32.29 126.278 32.29H128.573V31.585C128.573 31.305 128.523 31.07 128.423 30.88C128.323 30.69 128.143 30.55 127.883 30.46C127.623 30.36 127.228 30.31 126.698 30.31H124.268V29.23C124.638 29.13 125.073 29.045 125.573 28.975C126.073 28.895 126.668 28.855 127.358 28.855C128.018 28.845 128.578 28.925 129.038 29.095C129.498 29.255 129.843 29.525 130.073 29.905C130.313 30.285 130.433 30.805 130.433 31.465V37H128.978L128.663 36.13C128.593 36.19 128.468 36.27 128.288 36.37C128.108 36.47 127.883 36.58 127.613 36.7C127.343 36.81 127.043 36.905 126.713 36.985C126.393 37.055 126.063 37.09 125.723 37.09ZM126.623 35.785C126.753 35.785 126.898 35.77 127.058 35.74C127.228 35.7 127.398 35.66 127.568 35.62C127.738 35.57 127.893 35.525 128.033 35.485C128.183 35.435 128.303 35.39 128.393 35.35C128.493 35.31 128.553 35.285 128.573 35.275V33.175L126.833 33.265C126.373 33.305 126.038 33.425 125.828 33.625C125.628 33.825 125.528 34.09 125.528 34.42V34.75C125.528 35 125.578 35.205 125.678 35.365C125.788 35.515 125.923 35.62 126.083 35.68C126.253 35.74 126.433 35.775 126.623 35.785ZM135.876 40.555L136.806 37C136.416 37 136.061 36.925 135.741 36.775C135.431 36.625 135.166 36.4 134.946 36.1C134.726 35.8 134.546 35.415 134.406 34.945L132.756 28.96H134.676L136.131 34.57C136.201 34.8 136.286 34.975 136.386 35.095C136.486 35.215 136.586 35.305 136.686 35.365C136.786 35.415 136.876 35.445 136.956 35.455C137.046 35.465 137.106 35.47 137.136 35.47L138.801 28.96H140.691L138.111 39.07L137.391 40.555H135.876Z" fill="white"/>
<defs>
<clipPath id="clip0_1288_34168">
<rect width="24" height="24" fill="white" transform="translate(14 13)"/>
</clipPath>
</defs>
</svg>
